<svg id="Capa_1" enable-background="new 0 0 510 510" height="512" viewBox="0 0 510 510" width="512" xmlns="http://www.w3.org/2000/svg"><path fill="#281a0d" d="m271.442 269.849c5.872 3.332 13.25 2.331 18.02-2.449l71.236-71.368-.032 31.89c-.009 8.284 6.7 15.007 14.984 15.016h.016c8.277-.001 14.991-6.706 15-14.984l.069-68.32c.008-8.279-6.702-15.007-14.985-15.016l-68.32-.068c-.005 0-.01 0-.015 0-8.277 0-14.992 6.706-15 14.985-.008 8.284 6.701 15.007 14.985 15.015l32.322.033-63.417 63.534-66.688-37.847c-5.917-3.356-13.356-2.313-18.119 2.55l-67.949 69.371c-5.797 5.918-5.698 15.415.22 21.212 5.917 5.797 15.415 5.699 21.212-.22l59.871-61.123z"/><path fill="#281a0d" d="m495 334.642h-29.37v-225.715c0-24.813-20.187-45-45-45h-331.26c-24.813 0-45 20.187-45 45v225.715h-29.37c-8.284 0-15 6.716-15 15v48.71c0 26.313 21.407 47.721 47.721 47.721h414.559c26.313 0 47.721-21.407 47.721-47.721v-48.71c-.001-8.284-6.717-15-15.001-15zm-420.63-225.715c0-8.271 6.729-15 15-15h331.26c8.271 0 15 6.729 15 15v225.715h-115.63c-5.229 0-10.081 2.723-12.805 7.187l-11.132 18.244h-82.127l-11.132-18.244c-2.724-4.464-7.575-7.187-12.805-7.187h-115.629zm405.63 289.425c0 9.771-7.949 17.721-17.721 17.721h-414.558c-9.771 0-17.721-7.949-17.721-17.721v-33.71h151.581l11.132 18.244c2.724 4.464 7.575 7.187 12.805 7.187h98.965c5.229 0 10.081-2.723 12.805-7.187l11.132-18.244h151.58z"/></svg>